<?xml version="1.0"?>
<svg xmlns="http://www.w3.org/2000/svg" xmlns:xlink="http://www.w3.org/1999/xlink" version="1.1" id="Layer_1" x="0px" y="0px" viewBox="0 0 511.998 511.998" style="enable-background:new 0 0 511.998 511.998;" xml:space="preserve" width="512px" height="512px" class=""><g><ellipse style="fill:#000000" cx="287.365" cy="256.998" rx="60.28" ry="62.708" data-original="#CEE8FA" class="active-path" data-old_color="#CEE8FA"/><g>
	<path style="fill:#FFFFFF" d="M287.366,180.758c-24.877,0-46.904,12.793-60.28,32.33c-13.377-19.537-35.402-32.33-60.28-32.33   c-34.207,0-63.043,24.163-71.375,56.832c-10.614-10.164-24.991-16.429-40.813-16.429c-9.363,0-18.396,2.21-26.468,6.256v-25.666   h62.958c7.471,0,13.526-6.056,13.526-13.526s-6.056-13.526-13.526-13.526H14.623c-7.471,0-13.526,6.056-13.526,13.526v69.146   c-0.074,0.867-0.064,1.745,0.031,2.619l0.049,0.448c0.782,7.142,6.997,12.41,14.182,12.037c5.666-0.31,10.361-4.074,12.084-9.183   c5.835-9.348,16.077-15.078,27.176-15.078c17.653,0,32.014,14.361,32.014,32.014c0,17.653-14.361,32.014-32.014,32.014   c-12.252,0-23.592-7.143-28.892-18.2c-3.23-6.736-11.308-9.579-18.044-6.351c-6.736,3.23-9.579,11.308-6.351,18.044   c9.773,20.385,30.688,33.559,53.287,33.559c24.143,0,44.937-14.566,54.087-35.367c13.522,17.822,34.53,29.307,58.101,29.307   c7.471,0,13.526-6.056,13.526-13.526s-6.056-13.526-13.526-13.526c-25.78,0-46.754-22.065-46.754-49.186   s20.974-49.186,46.754-49.186c25.781,0,46.754,22.065,46.754,49.186c0,42.038,33.11,76.238,73.806,76.238   c40.698,0,73.806-34.201,73.806-76.238S328.064,180.758,287.366,180.758z M287.366,306.182c-25.781,0-46.753-22.065-46.753-49.186   s20.974-49.186,46.753-49.186c25.78,0,46.754,22.065,46.754,49.186S313.147,306.182,287.366,306.182z" data-original="#2D527C" class="" data-old_color="#2D527C"/>
	<path style="fill:#FFFFFF" d="M414.516,239.728c-4.58,0-9.046-2.327-11.589-6.532c-3.863-6.394-1.814-14.708,4.58-18.573   c0.626-0.379,1.201-0.843,1.707-1.378c1.401-1.484,2.175-3.434,2.175-5.486c0-4.412-3.589-8.002-8.001-8.002   c-4.412,0-8.002,3.59-8.002,8.002c0,7.471-6.057,13.526-13.526,13.526s-13.526-6.056-13.526-13.526   c0-19.329,15.726-35.055,35.055-35.055s35.053,15.724,35.053,35.055c0,8.984-3.395,17.529-9.559,24.061   c-2.187,2.314-4.669,4.316-7.381,5.956C419.311,239.097,416.899,239.728,414.516,239.728z" data-original="#2D527C" class="" data-old_color="#2D527C"/>
	<path style="fill:#FFFFFF" d="M381.858,275.745c-7.469,0-13.526-6.056-13.526-13.526v-54.461c0-7.471,6.057-13.526,13.526-13.526   s13.526,6.056,13.526,13.526v54.461C395.384,269.69,389.329,275.745,381.858,275.745z" data-original="#2D527C" class="" data-old_color="#2D527C"/>
	<path style="fill:#FFFFFF" d="M495.204,208.628l12.832-12.832c5.282-5.282,5.282-13.847,0-19.13   c-5.283-5.282-13.845-5.282-19.13,0l-12.832,12.832l-12.832-12.832c-5.283-5.282-13.845-5.282-19.13,0   c-5.282,5.282-5.282,13.847,0,19.13l12.832,12.832l-12.832,12.832c-5.282,5.282-5.282,13.847,0,19.13   c2.642,2.642,6.103,3.962,9.564,3.962c3.461,0,6.923-1.32,9.564-3.962l12.832-12.832l12.832,12.832   c2.642,2.642,6.103,3.962,9.564,3.962s6.923-1.32,9.564-3.962c5.282-5.282,5.282-13.847,0-19.13L495.204,208.628z" data-original="#2D527C" class="" data-old_color="#2D527C"/>
</g></g> </svg>
